<svg xmlns="http://www.w3.org/2000/svg" viewBox="0 0 815.62 2422.39"><defs><style>.cls-1{fill:#063642;}</style></defs><title>Asset 7</title><g id="Layer_2" data-name="Layer 2"><g id="Layer_1-2" data-name="Layer 1"><path class="cls-1" d="M755.18,1166.51c-22.11-17.8-42.63-37.57-64-56.31-7.31-6.41-15-12.4-23.2-19.15,14.3-15.73,27.4-29.7,40-44.09,75.8-86.56,112.25-184.89,89.28-300.76-17.52-88.35-67.43-157-133.12-215.4-13.63-12.12-16.84-21.24-10.51-39.31C674.13,433,672.27,377,626.9,328.4c-5.23-5.6-7.93-15-8.88-22.93-5-41.63-7.78-83.55-13.69-125-6.16-43.19-15.74-87.16-47.55-118.75C504.53,9.8,440.16-10.68,367.05,5.32c-46.5,10.17-92.86,27.23-121.11,66.14C207,125.05,183.16,186.35,183,254.89c0,18.8-4.35,37.75-8.23,56.31-2.68,12.82-8.1,25.05-12.13,37.6-3.84,12-6,24.7-11.44,35.92-17.52,36.49-22.79,74.8-16.07,114.09,3,17.26.22,29.19-12.08,41.74C66.82,598,27,664.11,9.41,744.1-29,919.18,53.46,1071,196.63,1132c5,2.12,9.36,5.57,14.33,8.59-14,24.85-28.27,47.71-40.12,71.77-57,115.81-21.18,265.23,103.06,322.09,25,11.45,51.78,19.31,78.16,27.46,18,5.54,36.64,8.71,55.78,13.13-5.41,16.62-10,30.77-14.63,44.94-36.92,114.1-76.68,227.38-109.89,342.55-30.27,105-26.91,210.76,14,313.78,24.7,62.2,65.07,109.29,127.79,135.75,61.28,25.85,135.12,1.5,166.92-56.42,15-27.37,28.65-55.53,42.48-83.55,7.43-15,18.31-24.83,35.23-27.51,12.59-2,19.19-8.77,21.54-22.23,1.35-7.79,7.42-16.53,14-21.23,9.62-6.9,21.87-9.18,20.54-25.69-1.67-20.71-1.7-41.29-23.7-52.7l-21.63,27.48-6.71-3.16c0-29.29-1.75-58.73.69-87.81,1.35-16.21,12.56-18.51,23.16-6.11,6.72,7.86,10.35,18.29,16.06,27.11,3.24,5,7.91,9.08,11.93,13.58l5.94-3.62c-.35-6.91.59-14.19-1.31-20.64-6.36-21.66-17.9-42.65-19.82-64.56-3.77-43-33.19-56.33-66.92-66.23s-63.37-1.76-86.36,25.69c-7.73,9.22-13.63,20-21.37,29.18-12.59,15-24.68,30.78-39.43,43.36-17.55,15-31.75,30.31-32.11,54.83-.06,4-2.22,8.15-4,11.93-21.47,44.62-21,86.24,15.92,123.41,12.85,12.94,2.4,22.1-6.7,30.06-10.65,9.33-17.46,2.8-23.54-7-19.46-31.37-31.14-65.09-34-102.08-4.91-64.48,11.48-126.07,28.95-186.52,34.89-120.72,74.83-240,110.46-360.49,7.28-24.6,19-37.59,42.38-46.33,77.87-29,143.11-75.65,188.24-146.77,12.44-19.6,27.27-40.73,30.33-62.66C821.69,1277.83,813.83,1213.72,755.18,1166.51Zm.44-479c.9,8.66,1.68,17.33,2.73,26q2.58,21.18,5.46,42.34c1.65,12,15.81,20.75,3.83,37.31-5.45,7.53,4.42,26.13,8.39,44.64l-22.76-21c7.55,22.45,13.38,39.75,19.2,57.06l-4.75,3.27-10.05-16.33-4.87,3.14c2.89,11.45,5.79,22.9,9.43,37.33l-12.61-7.41c.84,7.57,1.53,13.73,2.38,21.4l-9.19-3.8c-1.94,16.69,2.48,35.65-16,49,.65,2.4,2.07,7.61,4.17,15.28l-19.32-5.07c1.66,5.88,3.09,10.94,5.28,18.66l-23.7-10,14.13,28.09-2.93,2.2-25.29-18.13c5.16,14.12,8.09,22.15,11,30.18l-3.89,2.9L674,1000.64l-7.47,6.06c2.59,6.55,5.19,13.1,9.14,23.07-11.26-7.82-19.67-13.68-28.08-19.53l-2.28,2.73,16.38,32.32-2.38,1.75-29.6-24.13-2.9,3.51q9.06,15.76,18.14,31.53l-3.89,2.93c-5.75-5.49-10.63-12.85-17.46-16-8-3.65-10.71-24.32-25.87-9.5-.25.25-8.49-7.68-15.38-14C709.14,944.53,753,827.68,750.48,687.9ZM598.24,978.7c3.16-5.88,5-15.15,9.71-17,17.75-7,22.84-20.87,26-37.48,1-5.16,5.44-10.4,9.72-13.82,1.73-1.38,9.93,1.22,10.57,3.37,1.87,6.32,4.49,16,1.36,19.61-15.3,17.83-32.38,34.12-48.83,51ZM711.6,715.76c5.2-12,4.65-26.54,6.67-39.94l6.4-.58v72.84C705.33,740.28,704.15,733,711.6,715.76Zm-55.19-149c-5.63,1.75-11.75,2.66-16.74,5.53-4.11,2.36-6.87,7.06-10.23,10.72,3.92,3,7.44,7.5,11.82,8.6,18.83,4.71,37.91,8.4,56.9,12.47l-1.32,6.54-31.5-5.5,20,15-8.89,4.28c8.12,17.42,16.92,34.12,23.38,51.67,1.67,4.53-2.38,15.19-6.58,17.17-21.33,10.08-19.82,26.74-12.39,43,7.57,16.61,18.06,32,28.36,47.24,21.19,31.29,5.41,91.41-29,106.57-3.79,1.68-9.58.25-14-1.13-29.38-9.11-39.52-5.34-44,23.43-3.38,21.79-10.87,34.8-32.5,43.21-7.81,3-9.83,21.85-13.71,33.72-1.64,5-1.24,10.64-3.73,16-8.19-19.77-14.7-37.92-3.66-60.81C589,902.6,605.27,858.78,623.2,815.73a4.49,4.49,0,0,0,.61-2c-3.18-30.34,1.25-59.57,9-89.05,1.58-6-11.66-20-20.77-23.75-14.19-5.86-22.84-13.24-24.65-28.37a38.19,38.19,0,0,0-1.65-8.33c-13.78-38.86-10-52.92,22-80C637.72,558.75,637.72,558.75,656.41,566.79ZM486.59,701.94c39.7-2,83.35,37.32,96.17,85.77,17.64,66.68-8.67,134.58-65.07,162.6C470.49,871.06,470.68,787.51,486.59,701.94Zm-25.14-17.47c8.75-19.58,1.62-46.65,22.47-60.85l8.21,4Q476.79,656,461.45,684.47ZM627.3,405.62c0-1.34,5.61-4.27,8.14-3.81s5.86,4.17,6.1,6.71c.77,8.3.29,16.72.29,28.09C620.54,430.2,627.55,416.32,627.3,405.62Zm-435.55-56c1.18-16.79,12.93-27.36,27.4-22.6-3-32.83-10.06-66.45-8.05-99.52,2.31-38.22,47.72-42.19,68.52-72l-37.45,13.3c-3.88-25.89,3-46.14,16.61-65.28,54.57-76.9,175.43-99.6,253.89-47,33.72,22.59,54,43.66,23.2,95,5.86,4.47,11.92,9.06,17.94,13.69,38.94,29.95,46.73,56.52,29.27,102.37-7.15,18.78-10.92,34.58,13.75,44.56,12.45,5,9.21,58.39-3.24,64.2-4.88,2.28-13.39,2.76-17.4,0-24-16.66-50.12-13.3-76-8.69-4.6.81-11.56,10.61-10.8,15.15,2.33,13.82,8.77,26.9,11.95,40.64,3.35,14.45,4.77,29.35,7,44.05l-7.45,1.3q-11.6-31.35-23.2-62.68l-8.64,2.39c5.2,18,8.87,36.59,16,53.78,10,24.14,8.2,28.2-19,28-4.22-25.91-8.48-52-12.73-78.17l-7.31.49c0,11.11-.08,22.23,0,33.34.09,11.37.47,22.74.52,34.11.13,24.18-1.63,25.57-31.22,22.06V427.78l-8-.41V503c-28.55,8.5-31.6,6.72-32.34-17.89-.63-20.89-.13-41.82-4.41-63.4-3,25.75-5.94,51.51-9,77.56-16.88,6.3-20.95-2.11-19.72-16,2.12-23.81,4.7-47.58,7.08-71.37l-5.95-2.22c-2.41,3.87-6.41,7.53-7,11.66-2.44,18.27-3.1,36.81-6.14,55-1,5.85-7.28,10.8-11.14,16.16-4.78-6.65-14.45-14.13-13.49-19.8,4.4-25.81,11.32-51.23,18.23-76.55,6-22.06-.17-29-22.48-24.79-13.14,2.47-26.71,2.65-39.85,5.13-8.68,1.65-17.58,4.41-25.21,8.74-11.11,6.31-23.76,18.22-33.65,5.32C194.36,380,190.8,363.19,191.75,349.65Zm58.42,611.84c-37.52-16.82-58.43-46-60.1-85.62-1.43-33.66-.39-68.53,7-101.18,10.37-45.79,42.19-75.58,84.42-89.26l111.08,336.12c-4.25-.44-12.65.64-19.19-2.34C332.12,1000.41,291.56,980,250.17,961.49Zm18,31c-32.53,8.75-38.6,5-37-19.59Zm-92.19-58.36c-5.75-.26-13.56,1.74-16.83-1.24-7.45-6.77-12.67-16-18.79-24.21l5.5-6.77c9.59,5.64,19.8,10.5,28.4,17.38C177,921.49,175.48,929,175.93,934.12Zm-2-196.56c1.09,15.39-5.52,25.21-18.65,32.87-3.78,2.2-5.54,10.35-5.71,15.85-.65,20.82-.26,41.66-.26,62.49l-6.55.42C116.07,794.31,157.1,673,205.42,625.06v52.35l-6.66-3.3c-7.81,15.2-16,29.8-22.77,45C173.57,724.51,173.52,731.43,174,737.56Zm26.7-304.39c23.35,19.34,42,34.39,60.1,50.15,3.59,3.14,6.58,9,6.76,13.67.74,19.78.31,39.6.31,66.12-7.28-8.6-10.67-11.9-13.24-15.76-14.75-22.18-31-43.62-43.27-67.1C204.5,467.25,204.36,450.76,200.65,433.17Zm-37.45.61c4.57,4.38,12.72,8.46,13.1,13.17,1.52,18.87.63,37.92.63,60.3-3.29-1.43-8.94-2.23-9.58-4.46-5.23-18.25-10.24-36.65-13.53-55.32C153.13,443.58,159.88,438.38,163.2,433.78ZM80.93,622.88c19.93,36.58-23.19,52.31-11.26,80.75l-28.84,3.83C54.68,678.23,66.51,653.3,80.93,622.88ZM45.08,972.63,39.65,934l9.44-1.66q3.7,19.15,7.43,38.31Zm50.16,61.54c-7.59-15-16.79-28.52-21-43.48-2-7.17,3-19.08,8.78-25.22,16.78-18,15-36.81-6.64-47.52-12.4-6.14-24.84-12.19-37.1-18.19C53.7,890.58,69.65,885.17,77.55,874c6.85-9.64,8-26.44,5.61-38.89C78.08,809,53.78,813.46,31,809.56c1.13-19.76,0-40.48,4.66-59.82,1.62-6.76,16.87-12.32,26.78-14.55,14.57-3.27,35.32,7,39-17.4,2.1-14.1-.34-28.88-.74-43.36l-6.39-.76c6.08-6.66,11.54-14,18.34-19.85,23.91-20.48,24.49-22.53,6.81-47.11-2.78-3.87-6.58-7-10.69-11.32,3.83-5.39,7.26-10.61,11.1-15.52,22.68-29.07,42.33-28.55,65,1.63,10.76,14.3,5.94,29.37-11.14,34.83-32.92,10.52-49.24,35.79-47.63,70,.89,18.82-1.39,37.8-2.31,56.71-1.07,22-2.54,44-3.23,65.94-.79,25.51-2.5,51.13-.85,76.51,1.3,20.09,4.18,41.06,11.7,59.45,7.05,17.25,24.06,26.46,44.06,20.65,16.67-4.84,22.83,4.26,29.15,16.82,6.89,13.68-.89,36.4,20.69,40.53,15.65,3,32.34.58,50.37.58,9.68,25.29,15.23,29.19,56.6,37.33l-74.22,46.49c-2.32-6.78-3.73-10.67-5-14.61-11.65-36.34-11.69-36.61-48.6-30-12.26,2.2-19.16,1.2-22.27-13.72-8.59-41.24-40-50.75-72.4-23.27C106.69,1028.4,102.65,1030,95.24,1034.17Zm95.33,66c-16.54-7.82-33.28-15.81-48.22-26.2-6.89-4.79-10.33-15.1-13.91-23.51-.58-1.37,7.69-9.17,9.43-8.41,8.43,3.69,19.63,7.46,23.21,14.56,9,17.89,22,24.49,40.91,23.21,4.61-.31,9.33,1.12,16.65,2.11-2.49,8.59-2.54,18.95-7.12,21.67S197,1103.17,190.57,1100.13Zm177.6-18.07c-72.47,34.22-128.74,87-175.17,151C222,1145.13,306.67,1072.46,368.17,1082.06Zm-43.38,445.2,23.31-8.48-5.3-2.87-62.12,3.62c-.32-2.39-.63-4.78-.95-7.17l20.55-11.59-68.85-16q.28-3.93.56-7.86l31.29-10.39c-26.53-7.06-57,.27-64-34.63l24.59-3.48-43.75-19L203,1402c-30.28-27-31.66-31.07-13.92-41.5-21.11-19.09-11.82-42.45-7.13-63.75,18-81.87,75.57-133.82,141.48-177.19,19.74-13,45.6-17,69.07-23.67,4.27-1.21,10.57,4.79,15.93,7.46-2.93,5-5.4,10.37-8.9,15-5.12,6.72-11,12.89-18.76,21.88,0,.2,1.29,4.89,2.87,10.86H361c3.92,7.32,6.61,12.32,9.53,17.77-28.55,4-30.79,7.1-17.79,25.72-28.39-4.09-24.85,22.73-32,35.71-11.89,21.49-14.54,47.89-23.5,71.29-3.09,8.06-13.41,13.34-22.42,21.75l20,4.9L271,1357.79l29.87-3.54L282,1404.64l29.11-15.23c16.2,21.21,2.43,38-7.17,55.19,1.54,1.63,3.07,3.27,4.61,4.91l27-31.94c21.63,14.13-.3,31.34,5.56,49.65l24.29-29.28,4.91,1.61q-4,19.15-8,38.32l3.39,2.13,25.4-33.64,5.9.5c-.71,12.23-1.42,24.46-2.18,37.61l9,3.81C408.72,1512.35,372.12,1533.4,324.79,1527.26Zm2.62-179.15c-15.07-35.11,2-84.36,45.39-127,59.48,52.56,65.52,122.23,66.68,195.6C385.07,1419.28,347.8,1395.58,327.41,1348.11Zm130.88,79.65,10.16-.78c.59,9.88,5.61,23.54,1,29-18.46,21.7-13.54,46.64-15.1,71-.69,10.7,2.1,25.41-19.45,24.61C442.86,1509.38,450.57,1468.57,458.29,1427.76Zm-1-119.44c3.61,3.49,9.46,6.51,10.36,10.6,1.67,7.68.48,16,.48,24l-8.53,1c-3-7.49-7.19-14.78-8.5-22.55C450.42,1317.48,455,1312.7,457.26,1308.32ZM407.88,1671.2c-5,19.54-10,39.07-15.2,59.44C381.8,1717.64,386.57,1689.94,407.88,1671.2Zm-81,207,12.08,3.06q-11.52,39-23,78.07l-8-2.09Zm-28.65,299.22-7.79.76q-3.26-40.87-6.49-81.73l9.41-3.21c3.21,6.44,9.32,13,9,19.28-.57,11-6.61,21.73-7.46,32.79C294.05,2155.81,296.94,2166.66,298.21,2177.37ZM513,2047.9l5.94,5.52q-12.87,14.16-25.73,28.31l-7.08-6.23C486.4,2057.71,497.08,2050.22,513,2047.9Zm-42.82,242.28c16.07-6.23,27.65-24.14,41.19-36.8,5.91-5.53,11.6-11.28,18.39-17.91-4.87-2.95-12.51-7.43-20-12.11-48.18-30-54.54-92.35-10.11-127.41,22.33-17.62,33.28-37.83,40.34-64.17,5-18.61,15.41-36.74,27-52.4,24.1-32.53,84.77-34.36,111.22-3.33,7.87,9.22,9.34,23.9,13.74,36.08l-5.53,3.39c-5.7-5.45-10.62-12.31-17.29-16-11.67-6.52-24.27-11.53-36.79-16.37-8.56-3.31-17.65-5.25-27.89-8.19,3,12,6.13,24.62,9.7,38.93-3.14-2-4.64-2.53-5.4-3.57-21.54-29.63-31.82-28.83-47.51,5.78-6.37,14-9.19,29.73-13.47,44.71-5.64,19.77-15,35.24-34.86,45.53-17.22,8.93-32.94,22.56-31.09,48.08,13-26.57,35.47-27.19,59.68-26.16,10.54.45,21.31-4.32,33.8-7.13,3.49,27.33,22.77,42.08,52.65,43,25.68.75,51.39.15,79.25.15-2.75,4.64-5.65,12.15-10.75,17.6-11.07,11.82-29.6,16.6-30.34,38.27-.15,4.36-16.35,8.65-25.49,12.09-7.24,2.72-15,4.1-24.15,6.5,7.37,31-20.56,20.88-35.39,29.38l16.52,10.45-28.46,6.17,21.36,13.63-40.31,8.85,37.59,12.2L540.31,2328l33.54,10.51-.06,4.63-46.07,3.17-.3,3L555,2358.7c-.3,1.76-.59,3.52-.89,5.28l-48-3.48c-.26,1.14-.51,2.27-.77,3.41l38.9,12q-.39,2.65-.77,5.29l-51.14-6.51c1.07,3.09,2.21,6.38,3.72,10.76l-18.85-3.75c2.33,5.49,4,9.39,8.32,19.56l-29.75-13.34c-.2,1.51-.39,3-.59,4.52-13-2-29,0-38.28-6.93a347,347,0,0,1-59.56-56.2c-14.54-17.6-23.84-39.54-31.88-62.73,4.3,2.71,9.09,4.87,12.82,8.22C378.6,2311,424.69,2307.81,470.15,2290.18Zm-70.79-322.64c4.36-21.94,8.73-43.89,13.41-67.4C425.74,1915,421.19,1947.92,399.36,1967.54Zm80-196.28-4-1.55c3.49-23.72,6.5-47.53,11-71,.64-3.32,8.56-5.25,18.7-11Zm58.52-215.54c-12.73-17.47-18.09-28.56-4.22-43.47,5.41-5.81,2.87-19,3.87-28.92,1.15-11.3-8.77-28.28,20-29.17C550.83,1488.76,544.76,1520,537.84,1555.72ZM556.9,1409c-1.4,6.85-6.45,15.67-12.25,18.4-17,8-22.54,20.3-20.79,37.79,1.58,15.72-.46,29.51-9.88,44.1-5.79,9-5.8,28,0,37.06,22.5,34.87,9.62,67.67-3.33,99.5-4.71,11.56-20.59,18.52-31.21,27.76-20.72,18-21.16,34.51-.71,53.68-1.3,3.32-1.51,6.35-2.92,7.07-28.39,14.68-20.85,39.25-21.14,64.13-.31,27-9,53.84-14,80.7-37.51-6.89-38.37-6.11-44.66,29.49-.78,4.43-3.27,9.53-6.63,12.37-16.52,14-14.34,28.43-4.12,45.23,23.5,38.65,18.68,66.12-10.3,100.53-8.69,10.31-9.79,28.08-11.59,42.77-1.33,10.92,3.25,22.47,2.62,33.59-1.06,18.79,1.77,33.44,18.37,46.62,8.94,7.09,15.58,24.74,13.75,36.11-3.83,23.82,5.64,36.54,29.27,47.24-14.3,5.37-29.37,15.93-35.16,12.18-11.85-7.68-21.8-21.92-26.81-35.56-5.73-15.61-13.56-24.72-29.68-24.79-16.35-.07-21.4-10-21.11-23.24.52-22.79-4.33-46,12.41-67.12,5.75-7.24,4.17-23.42.87-33.93-4.37-13.94-15-25.81-20.51-39.54a120.24,120.24,0,0,1-8-36.22c-1.62-23.93,10.81-37,33.88-44.27,27-8.5,30.74-20.52,17.51-46.57-5.2-10.24-3.94-16.52,5.74-23,19.49-13.16,23.53-25.47,9.16-41.67-16.62-18.74-14.51-37-6.87-57,5.31-13.93,9.79-28.64,17.85-40.89,5.12-7.78,15.43-14.17,24.65-16.77,15.38-4.33,22.3-11.92,18-27.46-3.9-14.13-.22-23.14,12.38-32.09,20.89-14.84,20.28-27,1.57-44.9-2.85-2.74-6.35-5.85-7.25-9.38-6.26-24.6,10.47-64.63,31.72-77.15,24.8-14.61,28.87-32.07,14.42-67.8,16.63-11.92,35.22-25.23,30.68-49.91-2.31-12.55-6.79-26.51-14.92-35.77-13.52-15.41-13.88-28-4.94-45.94,8.6-17.26,12.28-37.1,17.06-56.08,3.05-12.14-2.71-19.61-15.65-18.64-19.21,1.45-22.71-10-22.06-25.26.39-9.22,1.76-18.45,1.61-27.65-.13-8.4-1.72-16.77-2.66-25.15l-7.67-4.09,37.48-26.83,5.48,1.78c-8.57,28.15,16.29,35,28.49,49.18,18.65,21.76,19.91,32,0,51.79-13,13-9.78,41.72,7,59C550.16,1361,562.41,1382.05,556.9,1409ZM385.35,2097.69v62.72l-5.26,0v-62.49Zm74.07-1068.48,3.75-4.93c8.17,4.55,17.13,8.11,24.32,13.88a381.55,381.55,0,0,1,33.57,31c2.79,2.86,2.85,8.41,4.16,12.72-5.08.71-12.67,3.92-14.85,1.73C492.81,1066.07,476.27,1047.49,459.42,1029.21Zm128.59,335c-6.26-38.92-8.68-76.35-19-111.48-10.32-35.29-28.46-68.3-43.17-102.31,41.05,34.41,84.23,66.81,90.06,125.63C619.12,1308,611.08,1335.88,588,1364.17Zm133.69,16.92-23.79-16.77,23,36.7-3.15,2.42-20-16.88,19.9,45-5.78,3.94L685.24,1411v54.46c-4.47-6.71-7.55-11.32-13.11-19.64V1476l-3.1.85c-2.59-4.93-5.19-9.85-9.43-17.9-2.6,11.11-4.56,19.47-7.8,33.28-3.31-10.42-5.11-16.07-8.17-25.67-4.51,12-7.59,20.07-12,31.74l-7.56-21.86-14.89,30.64h-4.51c-.92-20.74-5-42-1.85-62.09,3.08-19.44,13.67-37.69,21.11-56.84.5,8.92,1,18.81,1.59,28.71l2.76,0q4.35-32.62,8.72-65.25l5.69.24q2.94,19.35,5.87,38.7l5.74-.07c0-12.77.76-25.6-.21-38.3-1-13.28-3.72-26.42-5.68-39.63l5.4-1.94q6.47,15.33,12.91,30.66l4.14-.92q-9.2-33.39-18.44-66.89c11.79,7.06,30.53,12.35,31.56,20,3.13,23.32,22.79,34.84,34.65,55.86l-25.25-5.39,31.27,33.75Zm-59.06-204.77c1.88-4.57,8.45-7.21,12.86-10.74,3.77,5,10.48,9.78,10.79,15,1.26,20.74.52,41.6.52,60.42C658,1225.31,650,1207.09,662.64,1176.32Zm67.94,139c-7.44-34.27-3.29-47.56,17.35-55.61C759.12,1293.19,752.36,1314.87,730.58,1315.34Zm51.7,6.46-6-.09c0-11.21.6-22.45-.2-33.6-.61-8.41-1.81-17.16-4.85-24.93-9.51-24.31-23.71-26-49.63-3.49-2.1-12.73-3.85-23.39-5.62-34-3.37-20.26-4.64-41.17-10.68-60.6-7.05-22.64-26-26.71-45.63-13-8.84,6.16-18.24,11.52-31.67,19.93-1.48-15.91-2.42-26.15-3.4-36.38-.48-5-.61-10-1.63-14.83-9-42.32-16.68-45.49-53.27-22.49-2.69,1.69-6.47,1.64-10.48,2.56-1-13.37-.42-26.06-3.36-37.86-4-16.22-16.4-15-33.69-5.83,0-14.56.42-25.08-.13-35.55-.46-8.75-2-17.44-3.15-26.16-8.45,1.89-16.82,4.39-25.38,5.48-8,1-17,2.78-24.2.25-21.95-7.74-43-16.42-51.69-42.34C413,945,411.86,934.24,422,923.71c11.17-11.58,19.39-24.2,7.34-39.21-11.49-14.31-27-17-44.1-10.29-1.19.47-2.72.06-7.93.06,1.54-13.91,2.05-27.72,4.73-41.1,7.94-39.68-.34-51.16-42.1-52.7-1.75-12.59-4.28-25.65-5-38.81-.22-4.21,3.44-11,7.09-12.63,18.82-8.39,21.58-23.59,18.08-40.83-2.29-11.33.75-17.78,9.91-25,19.74-15.56,17.1-30.18-4.41-42.55-7.27-4.17-14.88-11.45-17.65-19-6.4-17.51.29-26.11,19.28-24.62,17.17,1.34,34.08,5.89,52.54,6l-11.76-9,1.23-3L448,579.25c-3.52-5.27-6-9-9.11-13.66l29.69,3.54c-2.16-5.37-3.51-8.74-4.31-10.75,27.81-9.75,51.31-25,65.71-52.27,7.64-14.48,11.71-31,30.32-38.16,7.73-3,12.33-14,18.39-21.39,11-13.38,21-13.12,32.07.82,4.56,5.76,12.44,8.89,23.28,16.26l-28.75,46c-28.77-26.22-44.1-24.67-60.76,3.88C530,538.45,513.34,563.18,523.4,595.1c1.51,4.8-3,11.49-3.37,12.82-16.12,1.88-28.43,3.3-40.74,4.78-2.77.33-5.58,1.5-8.27,1.24-29.57-2.85-24.19-2.58-25.9,25.16-2,32.33,7.14,61.83,10,92.69,1.22,13.34-4.71,27.64-8.74,41.09-9.43,31.5-16.77,60.9,12.88,88.3,9.62,8.9,12.79,28.91,12.38,43.65-.74,26.31,5.55,44.57,31.1,56.71,11.72,5.56,23.74,18.21,28,30.32,11.23,32.25,35.62,49.74,61.85,67.58,15.89,10.81,28.36,26.55,43.12,39.2,11,9.4,22.06,19.78,35,25.55,31.24,14,48.24,38.55,58.2,69.52,3.93,12.19,7.22,23.9,24.63,17.87,2.59-.9,8.18,2.11,10.15,4.89C786.47,1248.84,792.63,1284.06,782.28,1321.8Z"/><path class="cls-1" d="M319.59,309.29,307.35,334l4.07,4.21c43.3-17,57.51-57.91,74.45-96.55,1.59-3.63,2.3-7.65,4.1-13.84l-12.38,5.3c-17.13-35.06-51-23.59-78.17-28.16-17-2.86-36.69-4.69-48.61,18.13,10.05-1.17,17.71-2.24,25.4-2.9,7.51-.64,15.07-.87,22.6-1.28-24.19,14.55-61.16,12.7-58.72,52.47C243.25,322.82,280.87,317.26,319.59,309.29Z"/><path class="cls-1" d="M473.94,322.19c4.68,5.35,17.4,3.67,28.24,5.52-2.83-8.67-4.36-13.33-6.74-20.59,11.7,0,20.87.39,30-.08,27.8-1.44,41.1-12.88,41.65-35.32.71-29.39-17.4-51.78-43.53-53.16-11.47-.6-23-.1-34.49-.1-.17-2.16-.33-4.31-.49-6.47l42.74-5.59c-5.85-3.46-8.42-5.7-11.39-6.62-28.25-8.77-79.12,15.44-89.6,43.11-2.12,5.59-3.9,14.14-1.19,18.26C443,282.24,457.37,303.24,473.94,322.19Z"/><path class="cls-1" d="M390,371C402,369.62,414,368.58,426,368.21c12.49-.39,19.38-6.13,16.11-18.43-5.67-21.34-12.89-42.27-20.44-66.49-10.12,3.41-19.29,3.64-21.73,7.81-10.64,18.17-20.9,36.9-28.19,56.57C366.64,361.34,370.87,373.22,390,371Z"/><path class="cls-1" d="M320.77,159.11l48,32.91C370,167.86,353.92,156.59,320.77,159.11Z"/><path class="cls-1" d="M493.16,156.36c-24.11,6.16-45.09,7.56-57.36,36C459.76,183.94,479.6,180,493.16,156.36Z"/></g></g></svg>