<svg xmlns="http://www.w3.org/2000/svg" viewBox="0 0 443.4 351.99"><defs><style>.cls-1{fill:#063642;}</style></defs><title>Asset 4</title><g id="Layer_2" data-name="Layer 2"><g id="Layer_1-2" data-name="Layer 1"><path class="cls-1" d="M410,151.88l-22.2,3.91a101.3,101.3,0,0,0,16.07-99.36L371,84,358.88,94.17A101.34,101.34,0,0,0,323.13,0L323,.34,288.29,112.18,272.51,163a75.8,75.8,0,0,0-122.86-51.87L124,40.61l-.1.31-.16-.42a102.06,102.06,0,0,0-36,94.82l-45.29-38A101.95,101.95,0,0,0,58.58,197.36L0,187a102,102,0,0,0,55.13,74.63h0l.23.11c53.06,27.67,94.85,23.11,120.53,14.45l.13.79-.22.14a73.88,73.88,0,0,0,10.95,24,25.53,25.53,0,0,0-21.23,17.32,25.53,25.53,0,0,1,29.23,33.05,25.55,25.55,0,0,0,20.53-25c0-.34,0-.69,0-1a73.18,73.18,0,0,0,25,7A80.39,80.39,0,0,0,346,331.87,80.34,80.34,0,0,0,321.11,259c27-2,56.91-12.55,90.59-48.82,11.14-12,29.13-43.71,31.7-64.64Zm-232.77,90-.21.5c-.11.26-.21.51-.31.78s-.13.37-.19.56-.17.59-.25.9c0,.16-.09.33-.12.5-.11.49-.21,1-.28,1.52,0,0-38.34-27.1-37.55-73.43v-.25a56.16,56.16,0,0,1,112.31,0q0,.89,0,1.77c0,.3,0,.6,0,.89s0,.57,0,.85l-.09,1.19c0,.17,0,.35-.05.52,0,.46-.09.92-.14,1.38,0,.1,0,.21,0,.31-.06.5-.13,1-.21,1.51a.77.77,0,0,1,0,.15c-.08.53-.17,1.07-.27,1.6v0a56.16,56.16,0,0,1-24.11,36.54C206.88,232.94,183.41,228.83,177.23,241.84ZM254.63,320a23.73,23.73,0,0,0-27.18-30.73A23.74,23.74,0,1,1,254.63,320Z"/><ellipse class="cls-1" cx="209.02" cy="175.09" rx="16.82" ry="11.19" transform="translate(-62.49 150) rotate(-34.67)"/></g></g></svg>