<svg xmlns="http://www.w3.org/2000/svg" viewBox="0 0 431.5 47.42"><defs><style>.cls-1{fill:#063642;}</style></defs><title>Asset 4</title><g id="Layer_2" data-name="Layer 2"><g id="Layer_1-2" data-name="Layer 1"><path class="cls-1" d="M13.48,9h-9A4.49,4.49,0,0,1,0,4.49H0A4.49,4.49,0,0,1,4.49,0h9A4.5,4.5,0,0,1,18,4.49h0A4.5,4.5,0,0,1,13.48,9Z"/><path class="cls-1" d="M4.49,18h9A4.5,4.5,0,0,1,18,22.47h0A4.5,4.5,0,0,1,13.48,27h-9A4.49,4.49,0,0,1,0,22.47H0A4.49,4.49,0,0,1,4.49,18Z"/><path class="cls-1" d="M13.48,44.94h-9A4.49,4.49,0,0,1,0,40.44H0A4.49,4.49,0,0,1,4.49,36h9A4.5,4.5,0,0,1,18,40.44h0A4.5,4.5,0,0,1,13.48,44.94Z"/><path class="cls-1" d="M36,9H27a4.49,4.49,0,0,1-4.49-4.5h0A4.49,4.49,0,0,1,27,0h9a4.49,4.49,0,0,1,4.49,4.49h0A4.49,4.49,0,0,1,36,9Z"/><path class="cls-1" d="M27,18h9a4.49,4.49,0,0,1,4.49,4.49h0A4.49,4.49,0,0,1,36,27H27a4.49,4.49,0,0,1-4.49-4.49h0A4.49,4.49,0,0,1,27,18Z"/><path class="cls-1" d="M36,44.94H27a4.49,4.49,0,0,1-4.49-4.5h0A4.49,4.49,0,0,1,27,36h9a4.49,4.49,0,0,1,4.49,4.49h0A4.49,4.49,0,0,1,36,44.94Z"/><path class="cls-1" d="M58.42,9h-9a4.49,4.49,0,0,1-4.49-4.5h0A4.49,4.49,0,0,1,49.43,0h9a4.49,4.49,0,0,1,4.49,4.49h0A4.49,4.49,0,0,1,58.42,9Z"/><path class="cls-1" d="M55.57,28.66l-7.78-4.49A4.5,4.5,0,0,1,46.14,18h0a4.5,4.5,0,0,1,6.14-1.64l7.79,4.49A4.5,4.5,0,0,1,61.71,27h0a4.49,4.49,0,0,1-6.13,1.65Z"/><path class="cls-1" d="M55.57,46.64l-7.78-4.49A4.5,4.5,0,0,1,46.14,36h0a4.5,4.5,0,0,1,6.14-1.65l7.79,4.5A4.5,4.5,0,0,1,61.71,45h0A4.49,4.49,0,0,1,55.57,46.64Z"/><path class="cls-1" d="M202.05,11.5H191.27V40.62h-2.52V11.5H178V9h24.09Z"/><path class="cls-1" d="M213.38,40.79a9.8,9.8,0,0,1-5.27-1.47,10,10,0,0,1-3.67-4.1,13,13,0,0,1-1.31-5.88v-.93a13.67,13.67,0,0,1,1.32-6.07,10.48,10.48,0,0,1,3.67-4.25,9.16,9.16,0,0,1,5.1-1.55A8.55,8.55,0,0,1,220,19.45a11.66,11.66,0,0,1,2.51,7.94v1.73H205.65v.22A9.91,9.91,0,0,0,207.87,36a7,7,0,0,0,5.63,2.66,8.21,8.21,0,0,0,3.58-.76,8,8,0,0,0,2.81-2.42l1.58,1.23A9.17,9.17,0,0,1,213.38,40.79Zm-.47-22A6.52,6.52,0,0,0,208,21a10.75,10.75,0,0,0-2.52,6h14.19v-.28a9.32,9.32,0,0,0-2-5.72A6,6,0,0,0,212.91,18.82Z"/><path class="cls-1" d="M400.75,40.79a9.84,9.84,0,0,1-9-5.57,12.88,12.88,0,0,1-1.32-5.88v-.93a13.92,13.92,0,0,1,1.29-6.07,10.37,10.37,0,0,1,3.62-4.25,8.86,8.86,0,0,1,5-1.55,8.35,8.35,0,0,1,6.7,2.91c1.65,1.94,2.47,4.58,2.46,7.94v1.73H393v.22A9.87,9.87,0,0,0,395.19,36a7.13,7.13,0,0,0,5.67,2.66,8.29,8.29,0,0,0,3.6-.76,8.08,8.08,0,0,0,2.84-2.42l1.59,1.23A9.23,9.23,0,0,1,400.75,40.79Zm-.17-22A6.49,6.49,0,0,0,395.66,21a10.82,10.82,0,0,0-2.51,6h14.18v-.28a9.31,9.31,0,0,0-2-5.72A6,6,0,0,0,400.58,18.82Z"/><path class="cls-1" d="M235.76,38.93a6.44,6.44,0,0,0,4.37-1.53,5.48,5.48,0,0,0,1.9-4h2.4a7.5,7.5,0,0,1-1.29,3.91A8.25,8.25,0,0,1,240,40.11a9.25,9.25,0,0,1-4.22,1,8.56,8.56,0,0,1-7-3.21c-1.73-2.13-2.59-5-2.59-8.61v-.77a15.11,15.11,0,0,1,1.17-6.13,9.23,9.23,0,0,1,3.34-4.11,8.88,8.88,0,0,1,5.09-1.44,8.32,8.32,0,0,1,8.69,8.34H242A6.14,6.14,0,0,0,235.87,19h-.13a6.13,6.13,0,0,0-5.23,2.52,11.8,11.8,0,0,0-1.86,7.1v.76a11.52,11.52,0,0,0,1.87,7A6.11,6.11,0,0,0,235.76,38.93Z"/><path class="cls-1" d="M252.74,21.27A9,9,0,0,1,256,18a8.63,8.63,0,0,1,4.36-1.14q3.76,0,5.61,2.11t1.86,6.33V40.62h-2.52V25.26A7.15,7.15,0,0,0,264,20.59a5.24,5.24,0,0,0-4.22-1.54,6.63,6.63,0,0,0-4.27,1.51,8.77,8.77,0,0,0-2.76,4.07v16h-2.52V7.55h2.52Z"/><path class="cls-1" d="M276.77,17.25l.09,4a9.34,9.34,0,0,1,3.28-3.3,8.59,8.59,0,0,1,4.34-1.14q3.76,0,5.59,2.12t1.86,6.35V40.62h-2.52V25.26a7.15,7.15,0,0,0-1.33-4.67,5.21,5.21,0,0,0-4.21-1.53,6.67,6.67,0,0,0-4.28,1.5,8.77,8.77,0,0,0-2.76,4.07v16h-2.52V17.26Z"/><path class="cls-1" d="M297.32,28.46a13.82,13.82,0,0,1,1.3-6.07,9.86,9.86,0,0,1,9.12-5.69A9.54,9.54,0,0,1,315.28,20a12.73,12.73,0,0,1,2.89,8.66v.54a13.81,13.81,0,0,1-1.3,6.1,9.71,9.71,0,0,1-3.69,4.18,10,10,0,0,1-5.41,1.47,9.59,9.59,0,0,1-7.54-3.27A12.56,12.56,0,0,1,297.32,29Zm2.66.72a10.71,10.71,0,0,0,2.15,6.88,7.34,7.34,0,0,0,10.32,1,7.93,7.93,0,0,0,1.05-1,11,11,0,0,0,2.15-7.1v-.5a12,12,0,0,0-1-4.91,8,8,0,0,0-2.78-3.45,7.18,7.18,0,0,0-4.07-1.2,6.92,6.92,0,0,0-5.64,2.71A10.9,10.9,0,0,0,300,28.7Z"/><path class="cls-1" d="M326.44,40.62h-2.52V7.55h2.52Z"/><path class="cls-1" d="M332.18,28.46a13.83,13.83,0,0,1,1.31-6.07,9.85,9.85,0,0,1,9.11-5.71A9.59,9.59,0,0,1,350.15,20,12.74,12.74,0,0,1,353,28.63v.55a13.84,13.84,0,0,1-1.29,6.11,9.82,9.82,0,0,1-3.69,4.18,10.14,10.14,0,0,1-5.42,1.47,9.61,9.61,0,0,1-7.54-3.27A12.59,12.59,0,0,1,332.19,29Zm2.31.72a10.66,10.66,0,0,0,2.16,6.88,7.33,7.33,0,0,0,10.31,1,6.89,6.89,0,0,0,1.05-1,11,11,0,0,0,2.16-7.1v-.5a12,12,0,0,0-1-4.91,8,8,0,0,0-2.75-3.43,7.05,7.05,0,0,0-4.1-1.22,6.9,6.9,0,0,0-5.64,2.71,11,11,0,0,0-2.19,7.09Z"/><path class="cls-1" d="M373.71,17.26l-.13,3.36a10.32,10.32,0,0,0-1.05-1.34,8.19,8.19,0,0,0-6.19-2.46,9,9,0,0,0-2.41.31h0A7.64,7.64,0,0,0,359.78,20a13.53,13.53,0,0,0-2.39,7.6c0,.36,0,.72,0,1.1v.36q0,5.5,2.46,8.75a7.74,7.74,0,0,0,6.5,3.23,8.29,8.29,0,0,0,7.21-3.46v.36a7.79,7.79,0,0,1-1.8,5.3,6.19,6.19,0,0,1-4.84,1.91,7.72,7.72,0,0,1-6.24-3.37l-1.38,1.56a7.77,7.77,0,0,0,1.11,1.32,9.34,9.34,0,0,0,2,1.44l.24.13a10.06,10.06,0,0,0,8.08.47,7.62,7.62,0,0,0,2.95-2,10.2,10.2,0,0,0,2.41-7.15V17.26Zm-.17,17.15a7.6,7.6,0,0,1-1,1.7,6.84,6.84,0,0,1-5.72,2.58,6.23,6.23,0,0,1-2.93-.67,5.78,5.78,0,0,1-2.13-1.92,12.22,12.22,0,0,1-1.79-7c0-.47,0-.93,0-1.36a11.75,11.75,0,0,1,1.77-6.19,5.9,5.9,0,0,1,5.07-2.56,7.07,7.07,0,0,1,4.11,1.18,7.28,7.28,0,0,1,2.61,3.43Z"/><path class="cls-1" d="M381.84,10.43a1.76,1.76,0,0,1,.47-1.24,1.85,1.85,0,0,1,3.1,1.08v.16a1.71,1.71,0,0,1-.49,1.22,1.75,1.75,0,0,1-1.3.5,1.66,1.66,0,0,1-1.77-1.57.76.76,0,0,1,0-.15Zm2.84,30.19h-2.52V17.26h2.52Z"/><path class="cls-1" d="M428.88,34.76a3.72,3.72,0,0,0-1.56-3.13,12.11,12.11,0,0,0-4.73-1.85,21,21,0,0,1-4.88-1.53,6.44,6.44,0,0,1-2.57-2.11,5.22,5.22,0,0,1-.84-3,5.62,5.62,0,0,1,2.33-4.62,9.5,9.5,0,0,1,6-1.82,9.68,9.68,0,0,1,6.35,2,6.25,6.25,0,0,1,2.39,5.09h-2.62A4.23,4.23,0,0,0,427,20.27a7.82,7.82,0,0,0-8.52-.23,3.54,3.54,0,0,0-1.56,3,3.21,3.21,0,0,0,1.3,2.74A13.72,13.72,0,0,0,423,27.55a22,22,0,0,1,5.18,1.75,6.69,6.69,0,0,1,2.54,2.21,6.06,6.06,0,0,1-1.58,7.91,10.28,10.28,0,0,1-6.31,1.79,10.58,10.58,0,0,1-6.7-2,6.16,6.16,0,0,1-2.57-5.06h2.63a4.5,4.5,0,0,0,1.93,3.57A7.87,7.87,0,0,0,422.78,39a7.39,7.39,0,0,0,4.42-1.21A3.65,3.65,0,0,0,428.88,34.76Z"/><path class="cls-1" d="M91,27H78.38v8.27H93.12v5.39H71.91V9H93.12v5.39H78.38v7.19H91Z"/><path class="cls-1" d="M96.24,11.14a3.12,3.12,0,0,1,.94-2.31,4,4,0,0,1,5.1,0,3.09,3.09,0,0,1,1,2.31,3,3,0,0,1-1,2.32,4,4,0,0,1-5.06,0A3,3,0,0,1,96.24,11.14Z"/><rect class="cls-1" x="96.72" y="16.9" width="6.11" height="23.73"/><path class="cls-1" d="M106.11,27.48a12.75,12.75,0,0,1,2.49-8.2,8.18,8.18,0,0,1,6.72-3.1,7.18,7.18,0,0,1,5.83,2.49l.22-1.77h5.54V38a9.3,9.3,0,0,1-1.35,5,8.63,8.63,0,0,1-3.82,3.27A13.65,13.65,0,0,1,116,47.41a12.8,12.8,0,0,1-4.88-1,8.68,8.68,0,0,1-3.6-2.51l2.7-3.6a7.22,7.22,0,0,0,5.51,2.48,5.32,5.32,0,0,0,3.77-1.26A4.67,4.67,0,0,0,120.8,38V36.8a7.1,7.1,0,0,1-5.55,2.3A8.1,8.1,0,0,1,108.62,36a12.76,12.76,0,0,1-2.54-8.27Zm6.31.26a8.06,8.06,0,0,0,1.2,4.71,3.85,3.85,0,0,0,3.32,1.72,4.09,4.09,0,0,0,3.86-2v-9.3a4.11,4.11,0,0,0-3.82-2,3.85,3.85,0,0,0-3.34,1.74A9,9,0,0,0,112.42,27.74Z"/><path class="cls-1" d="M142.5,41.48a11.86,11.86,0,0,1-8.65-3.26,11.69,11.69,0,0,1-3.34-8.7v-.63a14.57,14.57,0,0,1,1.41-6.52,10.3,10.3,0,0,1,4-4.43,11.12,11.12,0,0,1,5.88-1.55,10,10,0,0,1,7.8,3.13q2.85,3.14,2.85,8.88v3.24H137a4.72,4.72,0,0,0,1.9,3.23,5.66,5.66,0,0,0,4,1.44,7,7,0,0,0,5.83-2.71l3.17,3.56A9.8,9.8,0,0,1,148,40.37,12.86,12.86,0,0,1,142.5,41.48Zm-.77-19.91a4,4,0,0,0-3,1.27A6.52,6.52,0,0,0,137.11,27H146V26a4.69,4.69,0,0,0-1.14-3.26,4.06,4.06,0,0,0-3.12-1.15Z"/><path class="cls-1" d="M162,16.9l.2,2.74A8.29,8.29,0,0,1,169,16.46c2.51,0,4.39.74,5.61,2.22s1.87,3.68,1.9,6.62V40.62h-6.12V25.42a4.07,4.07,0,0,0-.89-2.94,4,4,0,0,0-3-.91,4.42,4.42,0,0,0-4.06,2.29V40.62H156V16.9Z"/></g></g></svg>