<svg xmlns="http://www.w3.org/2000/svg" viewBox="0 0 609.24 270.04"><defs><style>.cls-1{fill:#063642;}</style></defs><title>Asset 6</title><g id="Layer_2" data-name="Layer 2"><g id="Layer_1-2" data-name="Layer 1"><path class="cls-1" d="M90,135a15,15,0,0,0-15-15H15a15,15,0,0,0,0,30H75A15,15,0,0,0,90,135Z"/><path class="cls-1" d="M150,195a15,15,0,0,0-15-15H75a15,15,0,0,0,0,30h60A15,15,0,0,0,150,195Z"/><path class="cls-1" d="M150,75a15,15,0,0,0-15-15H75a15,15,0,0,0,0,30h60A15,15,0,0,0,150,75Z"/><path class="cls-1" d="M609.24,225V45a45.07,45.07,0,0,0-45-45h-330a45,45,0,0,0-45,45V225a45,45,0,0,0,45,45h330A45.06,45.06,0,0,0,609.24,225Zm-58-195L408.32,139.19a15,15,0,0,1-18.22,0L247.17,30ZM219.81,229.32a14.94,14.94,0,0,1-.62-4.29V46.38L336.49,136ZM254.45,240l106.6-85.28L371.89,163a45.1,45.1,0,0,0,54.64,0l10.84-8.28L544,240ZM461.94,136l117.3-89.61V225a14.84,14.84,0,0,1-.64,4.29Z"/></g></g></svg>