<svg xmlns="http://www.w3.org/2000/svg" viewBox="0 0 443.4 470.01"><defs><style>.cls-1{fill:#063642;}</style></defs><title>Asset 1</title><g id="Layer_2" data-name="Layer 2"><g id="Layer_1-2" data-name="Layer 1"><path class="cls-1" d="M410,151.88l-22.2,3.91a101.3,101.3,0,0,0,16.07-99.36L371,84,358.88,94.17A101.34,101.34,0,0,0,323.13,0L323,.34,288.29,112.18,272.51,163a75.8,75.8,0,0,0-122.86-51.87L124,40.61l-.1.31-.16-.42a102.06,102.06,0,0,0-36,94.82l-45.29-38A101.95,101.95,0,0,0,58.58,197.36L0,187a102,102,0,0,0,55.13,74.63h0l.23.11c53.06,27.67,94.85,23.11,120.53,14.45l.13.79-.22.14a73.88,73.88,0,0,0,10.95,24,25.53,25.53,0,0,0-21.23,17.32,25.53,25.53,0,0,1,29.23,33.05,25.55,25.55,0,0,0,20.53-25c0-.34,0-.69,0-1a73.18,73.18,0,0,0,25,7A80.39,80.39,0,0,0,346,331.87,80.34,80.34,0,0,0,321.11,259c27-2,56.91-12.55,90.59-48.82,11.14-12,29.13-43.71,31.7-64.64Zm-232.77,90-.21.5c-.11.26-.21.51-.31.78s-.13.37-.19.56-.17.59-.25.9c0,.16-.09.33-.12.5-.11.49-.21,1-.28,1.52,0,0-38.34-27.1-37.55-73.43v-.25a56.16,56.16,0,0,1,112.31,0q0,.89,0,1.77c0,.3,0,.6,0,.89s0,.57,0,.85l-.09,1.19c0,.17,0,.35-.05.52,0,.46-.09.92-.14,1.38,0,.1,0,.21,0,.31-.06.5-.13,1-.21,1.51a.77.77,0,0,1,0,.15c-.08.53-.17,1.07-.27,1.6v0a56.16,56.16,0,0,1-24.11,36.54C206.88,232.94,183.41,228.83,177.23,241.84ZM254.63,320a23.73,23.73,0,0,0-27.18-30.73A23.74,23.74,0,1,1,254.63,320Z"/><ellipse class="cls-1" cx="209.02" cy="175.09" rx="16.82" ry="11.19" transform="translate(-62.49 150) rotate(-34.67)"/><path class="cls-1" d="M40.26,441.15v27.78H24V390.09H54.77a35.72,35.72,0,0,1,15.63,3.25,24,24,0,0,1,10.36,9.23,25.74,25.74,0,0,1,3.63,13.62q0,11.6-7.93,18.28t-22,6.68Zm0-13.15H54.77q6.45,0,9.83-3T68,416.3a13,13,0,0,0-3.42-9.37q-3.4-3.57-9.42-3.68H40.26Z"/><path class="cls-1" d="M91.38,439.09a34.65,34.65,0,0,1,3.35-15.53A24.56,24.56,0,0,1,104.4,413,28.17,28.17,0,0,1,119,409.26q11.86,0,19.36,7.26t8.37,19.71l.1,4q0,13.49-7.52,21.63T119.15,470q-12.66,0-20.22-8.12T91.38,439.8ZM107,440.21q0,8.34,3.14,12.77A11.28,11.28,0,0,0,128,453q3.19-4.36,3.2-14,0-8.19-3.2-12.69a10.38,10.38,0,0,0-9-4.5,10.23,10.23,0,0,0-8.88,4.47Q107,430.82,107,440.21Z"/><path class="cls-1" d="M188.24,452.74a5,5,0,0,0-2.84-4.52,32.2,32.2,0,0,0-9.13-3q-20.9-4.39-20.89-17.76a16.07,16.07,0,0,1,6.47-13q6.47-5.24,16.92-5.23,11.14,0,17.84,5.25a16.57,16.57,0,0,1,6.68,13.65H187.65a7.58,7.58,0,0,0-2.17-5.55c-1.44-1.46-3.7-2.2-6.77-2.2a9.4,9.4,0,0,0-6.12,1.79,5.65,5.65,0,0,0-2.16,4.55,4.84,4.84,0,0,0,2.46,4.2q2.46,1.59,8.31,2.76a68.11,68.11,0,0,1,9.86,2.62q12.39,4.56,12.4,15.76,0,8-6.88,13T178.82,470a31,31,0,0,1-13.08-2.62,22.11,22.11,0,0,1-9-7.21,16.76,16.76,0,0,1-3.25-9.88h14.84a8.14,8.14,0,0,0,3.09,6.39,12.21,12.21,0,0,0,7.68,2.22c3,0,5.26-.57,6.8-1.7A5.33,5.33,0,0,0,188.24,452.74Z"/><path class="cls-1" d="M232.26,395.94v14.4h10v11.48h-10v29.24c0,2.17.41,3.72,1.24,4.66s2.42,1.4,4.77,1.4a25.2,25.2,0,0,0,4.6-.37V468.6A32.13,32.13,0,0,1,233.4,470q-16.47,0-16.79-16.62V421.82h-8.55V410.34h8.55v-14.4Z"/><path class="cls-1" d="M278,470q-12.88,0-21-7.9T248.88,441v-1.51a35.46,35.46,0,0,1,3.41-15.79A25.13,25.13,0,0,1,262,413a27.19,27.19,0,0,1,14.26-3.76q12,0,18.93,7.58t6.9,21.5v6.39h-37.3a14.53,14.53,0,0,0,4.57,9.2A13.85,13.85,0,0,0,279,457.4q9,0,14.13-6.56l7.69,8.61a23.58,23.58,0,0,1-9.53,7.77A31.27,31.27,0,0,1,278,470Zm-1.79-48.13a9.78,9.78,0,0,0-7.55,3.15q-2.89,3.15-3.71,9h21.76v-1.25q-.1-5.22-2.81-8.08T276.17,421.88Z"/><path class="cls-1" d="M327.45,468.93H311.74V385.76h15.71Z"/><path class="cls-1" d="M356.85,468.93H341.14V385.76h15.71Z"/><path class="cls-1" d="M367.3,439.09a34.79,34.79,0,0,1,3.35-15.53A24.56,24.56,0,0,1,380.32,413,28.19,28.19,0,0,1,395,409.26q11.87,0,19.36,7.26t8.37,19.71l.1,4q0,13.49-7.52,21.63T395.07,470q-12.66,0-20.22-8.12T367.3,439.8Zm15.64,1.12q0,8.34,3.14,12.77A11.28,11.28,0,0,0,404,453q3.19-4.36,3.2-14,0-8.19-3.2-12.69a10.38,10.38,0,0,0-9-4.5,10.23,10.23,0,0,0-8.88,4.47Q382.95,430.82,382.94,440.21Z"/></g></g></svg>