<svg xmlns="http://www.w3.org/2000/svg" viewBox="0 0 375.5 449.24"><defs><style>.cls-1{fill:#063642;}</style></defs><title>Asset 1</title><g id="Layer_2" data-name="Layer 2"><g id="Layer_1-2" data-name="Layer 1"><path class="cls-1" d="M76.63,301.3,89,302.52l.07,1.47C86,305,82.89,305.9,80,307.22c-1.2.53-2.75,2.06-2.72,3.11a5.77,5.77,0,0,0,2.3,4.09c1.9,1.23,4.28,1.7,6.42,2.48,4.46-8,12.15-11.23,19.8-14.38a5.75,5.75,0,0,1,4.79.41c5.63,4.16,12,7.52,11.82,16.4-.24,12.14.54,24.31.89,36.46a11.27,11.27,0,0,1-5.18,10.15c-12.33,8.73-23.87,5.68-30.17-8.22a13.71,13.71,0,0,1-.88-4.84c-.43-7.82-.76-15.64-1.13-23.46-.33-7-.56-7.26-8.53-8.05,0,7.62,0,15.19,0,22.77.07,11,.46,22,.22,33-.16,7.54,1.5,14.17,7.43,20H53.64c-.33-1-.59-1.51-.49-1.6,6-5.79,7.1-13,6.91-21-.38-16.66-.18-33.32-.22-50V319c-5.45,3.93-10.38,7.2-14.92,11-1,.82-.89,3.36-.79,5.09.55,10.29,1.26,20.57,1.08,31q-2.48-8-5-16l-1.43.31,2.1,65.38-.67.12q-2-6.65-4-13.27l-1.71.25q-1.72,23.16-3.46,46.32l-.54-.1c-3.35-31-6.71-62-10-92.53L27,362c-1.09-9.51-2-17.84-3.05-26.61-2.38-.39-4.67-.59-6.87-1.15-6.36-1.63-11.58-5-15.1-10.67-4-6.48-1.95-10.4,5.7-10.82a31.79,31.79,0,0,1,4.14.32c-6.93,6.21-6.2,9.44,2.6,12.44,2.43.82,5.16.76,8.79,1.25-.68-5.44-1.15-10.15-1.89-14.82s-1.71-9.11-1.88-14.07l6.44,9c-1.18-12.58-2.11-23.78-3.41-34.95-.2-1.72-2-3.31-3.21-4.83s-2.56-2.78-4.19-4.52l34-4.2c-8.35,8.35-7.21,18.57-6.79,28.67.33,8.16.46,16.32.73,24.48.07,2.13.31,4.24.55,7.28,5.67-4.5,10.72-8.41,15.6-12.52.65-.55.58-2.14.58-3.26,0-6.33.28-12.68-.17-19-.21-2.87-1.88-5.64-3-8.89H81.81C73.66,282.44,78,292.16,76.63,301.3Zm31.78,19.83c-2.14.74-3.21,1.35-4.33,1.46-5,.53-5.8,3.48-5.59,7.92.42,9.13.31,18.29.46,27.44.08,4.52,3.11,8.66,6.22,8.13,4.66-.78,4.54-4.66,4.54-8.17,0-8.15-.06-16.3-.28-24.45C109.33,329.54,108.8,325.63,108.41,321.13ZM99,318.74c6.69-2,9-4.76,8.08-9.55C101.79,310.1,99.56,312.61,99,318.74Z"/><path class="cls-1" d="M221.22,333.3c1.9-10.45,3.92-20.88,5.64-31.36.59-3.59-1.27-6.06-5-6.94-1.31-.31-2.6-.71-4.72-1.29L247,288c-.48.92-.71,2.19-1.44,2.62-6,3.5-8.41,9-9.8,15.48-4.4,20.66-9.07,41.25-13.65,61.87-.46,2-1,4.06-1.54,6.09l-1.66.28c-4.42-13.37-8.83-26.75-13.54-41l-16.14,41.08-1.6-.11q-4.37-18-8.74-36t-8.64-35.8c-4.09.08-3.95,2.73-3.88,5.23.29,9.5.43,19,1,28.48.33,5.54-1,9.92-6.25,12.41-4.48,2.13-9.06,4.06-13.62,6-1.74.76-3.54,1.37-5.31,2.05l.27,1.72c2.6-.15,5.4.26,7.78-.56,9.32-3.21,19,4,21.89,12,.93,2.6,1.33,6.46.05,8.59a140,140,0,0,1-13.29,18.47c-3.21,3.76-7.88,4.16-12.34,1.6-5-2.9-10.09-5.79-14.92-9-3.34-2.22-7.38-5.22-4.67-9.59,1.51-2.44,5.73-3.21,8.72-4.73l1,1.72L131.77,381c3.13,4.59,17.84,10.79,21.33,8,3.76-3,6-8.07,8.46-12.46.25-.45-2-3.13-3.47-3.6a83.29,83.29,0,0,0-14.46-3.51c-7.38-.95-12.93-3.94-15.81-11.51l13.1-6.38c-.57-.93-.68-1.33-.93-1.48-9.71-5.94-11.17-15.38-10.93-25.56,0-1.34.05-2.67.05-4,0-15.82,3.39-20.89,18.38-25.68a12.2,12.2,0,0,1,8.45.84c4.29,2.21,8.1,3.31,13.18,2.41,6-1.06,12.42-.25,19.93-.25-6.6,5.53-3.21,11.15-2,16.52a224.92,224.92,0,0,0,6.91,25.26c2.12-8.33,5.19-16.58,6-25,.45-4.78-.52-11.25-7.79-12.93l.37-1.23,22.67-2c-6.24,4.89-2.5,10.17-1.09,15.15,1.9,6.7,4,13.33,6.06,20ZM151.66,301l-2.13-.42c-2.17,2.76-6.08,5.45-6.21,8.31a249.84,249.84,0,0,0,.85,32.25c.19,2.29,3.78,6,5.9,6.05,4.23.14,3.08-4.28,3.09-7,.05-11.12-.08-22.23-.3-33.34C152.83,304.9,152.08,303,151.66,301Z"/><path class="cls-1" d="M333.3,290h7.61c.13,2,.25,3.95.39,6.23l-8.05,1.2c0,2.76,0,5.39,0,8-.16,20-.27,40-.54,60,0,3.16.56,4.73,4.16,5.16A184.07,184.07,0,0,1,355,373.91c4.67,1,7.68-1.17,7.84-5.23a28.78,28.78,0,0,0-2.64-12.18c-1.19-2.72-4.12-4.69-6.28-7s-4.83-4.64-6.79-7.3c-12.6-17.09-5.9-27.55,10.93-37.1,1.29-.74,3.92-.16,5.42.7,4.84,2.78,4.75,2.94,9.95.8l-3.83,20.65L368,327.2c-1.17-2.79-2-5.83-3.62-8.3-1.22-1.82-3.55-2.89-5.38-4.3-1.73,2.29-4.35,4.36-5,6.92-1.1,4.45.9,8.47,4.4,11.53,2.38,2.08,4.95,3.95,7.26,6.1,7.38,6.89,11.3,15.18,9.37,25.46-2.07,11-9.68,17.52-20.9,19-5.65.74-11.11-2-17,.22-2.44.92-6.35-3-9.56-2.92-8.58.11-17.15,1.1-25.71,1.92-1.33.13-2.57,1.23-4.28,2.1a20,20,0,0,0,16,8.72c-6.11,4.46-14.63,5.11-18.13,1.61-7-7-7.47-11.34-1.91-18.78l-20.12-4.1c9-3.07,8.65-9.4,8.46-15.86-.42-14.32-.52-28.65-1-43-.07-2-1.41-4-2.44-6.79L295.21,288c.53,3.13.94,5.56,1.46,8.67,2.68-1.47,4.85-3.42,7.22-3.72,1.89-.24,4,1.55,6.06,2.45l.56,1.62,22.79-25.32Zm-22.87,7.2c1.5,4.08,2.93,7.59,4.05,11.21.34,1.1.29,2.94-.4,3.65-3.71,3.8-7.64,7.38-11.59,10.93a2.25,2.25,0,0,1-2.16.14,2.22,2.22,0,0,1-.53-2.11c3-5.45-1.16-9.42-2.19-14.77-.71,1.1-1,1.37-1,1.62.41,19.13.81,38.25,1.3,57.37a15.77,15.77,0,0,0,1,4.32c1.09,3.44,3.19,4.7,6.83,3.46,4.67-1.6,9.45-2.89,14.32-4.36V298.26Z"/><path class="cls-1" d="M281,123a85.59,85.59,0,0,0,8.79-1c7.29-1.56,12.12,2.22,16.24,7.34s4,10.48.28,15.67a156.31,156.31,0,0,1-9.86,12.49c-3.25,3.65-7.49,4.34-11.8,2-4.93-2.73-9.76-5.67-14.47-8.77-2.87-1.9-5.42-4.58-3.78-8.34,1.71-3.92,5.53-3.29,10.15-3.52l-5.8,5.06c5.65,5.12,12.51,7.63,19,6.58,3.34-.54,5.95-6.68,8.27-10.65.23-.39-3.68-4-6.12-4.92-4-1.44-8.41-1.83-12.65-2.66-5.62-1.1-9.65-4.06-11.61-10l11.42-5.76c-.12-.68-.07-1.12-.25-1.25-13.72-10.32-10.42-24.92-9.56-38.79.11-1.67,1.75-3.79,3.28-4.73,5.47-3.35,11.19-6.29,16.92-9.44-2.46-4.24-6.3-8.85-7.95-14.13-3-9.44-4.9-19.29-1.93-29.23,1-3.48,2.61-6.69-.13-10.27-.87-1.14-.33-3.37-.51-6.37,2.27,1.39,3.39,2.23,4.63,2.8,3,1.41,6,3.23,9.21,3.89,4.51.94,8.57-.08,10.49-5.22.44-1.19,2-2,3.85-3.75a32.73,32.73,0,0,1,1.2,4.89c.2,3.21-.68,6.77.42,9.58,2.38,6.1,3.51,12.64,9.08,17.64,3.4,3,4.66,8.9,5.95,13.74a65.38,65.38,0,0,1,2,15.15,129.26,129.26,0,0,1-1,17c-.1.87-2,2-3.19,2.2-3,.63-5.55-.27-7-3.38s-3.13-6.41-4.73-9.67c-1.18,1.61-1.94,3.64-2.88,3.74-4.07.39-4.2,2.9-4.07,6,.32,8.16.26,16.34.83,24.47.42,6-1.15,10.49-6.83,13-3.63,1.62-7.31,3.12-11,4.65-1.74.72-3.5,1.37-5.25,2.06C280.78,121.72,280.9,122.35,281,123Zm8.29-53.41c-5.82,2.94-8.72,6.48-8.42,12.2.4,7.78.66,15.57,1.09,23.35a6.28,6.28,0,0,0,1.22,3.7,39.05,39.05,0,0,0,5,4.06c.87-2,2.45-4,2.49-6,.22-9.78.11-19.58-.07-29.36C290.6,75,289.84,72.54,289.32,69.56Z"/><path class="cls-1" d="M106.59,78.69c1.43-10,3.06-20,4.24-30,.87-7.39.25-7.89-7.47-8.94l26.75-7c-13.17,8.6-11.06,21.9-13.16,33.44-3.85,21.1-6.83,42.37-10.21,63.56a5.15,5.15,0,0,1-2.29,3.42Q98.87,108.28,93.3,83.38l-1.24-.09Q86.32,110,80.58,136.71l-1.24.1c-4.5-16.8-9-33.61-13.53-50.57l4.33,3.26L60.72,50.76l.39-.7q1.11,2.37,2.23,4.73L65,53.6c-1.26-7.66-.73-15.87-8.36-21.7l25.48-3.24c-9.33,9.25-2.62,19.13-1.71,28.76.29,3,1.11,6,.77,9.24q-2-4.38-4-8.76L76,58.27q3,16.11,6,32.24C83.64,78,90.19,66,86.81,53c-.81-3.11-2.57-6-4.08-9.38L103,42.69c-5.91,3.29-4.52,7-3.5,10.84,2.19,8.34,4,16.76,6,25.15Z"/><path class="cls-1" d="M154.63,279.56c-8.71,9.15-8.46,8.65-19.09,3.2-7.74-4-10.88-8.76-10.4-17.8.81-15.11-.15-30.3-.13-45.46,0-4.22-.74-6.95-5.88-5.8l17.94-26.4c0,5.34.13,10,0,14.69-.16,4.11.53,7,5.7,6,1.18-.22,2.53.38,4.21.68l14.15-21.81c0,5,0,8.72,0,12.47,0,8.21,0,8.21,7.69,9,1.31,3.51.34,5.32-3.69,5-2.9-.26-3.61,1.16-3.57,3.9.26,18,.19,36,.69,54,.09,3.13,2.21,6.3,3.8,9.23.36.66,2.45.39,3.74.54a33.17,33.17,0,0,0-2.29-3c-.49-.52-1.27-.79-1.67-2.19l14.5,1.34c-3.44,4.11-5.62,7.27-8.41,9.74-1,.89-3.8.76-5.22,0C162.54,284.74,158.71,282.08,154.63,279.56Zm-16.57-66.29c0,20.49-.14,40.11.19,59.73,0,2.57,2.37,5.21,4,7.57.44.63,2.24.32,3.42.44a16.38,16.38,0,0,0-1.69-2.84c-.64-.71-1.62-1.12-3.46-2.33h8.33V214Z"/><path class="cls-1" d="M248.41,76.24c-5.25,2.45-6.67,5.15-6.64,9.38.07,12-.52,24-.44,36,0,3.92,1.33,7.84,2,11.72H225.73c.78-5,1.85-9.63,2.14-14.28.87-13.61,1.42-27.24,2.11-41.08l-5.88-1.69L241.65,61.9V74c3.78-2.62,6.72-4.64,9.66-6.7,2.3-1.61,4-1.59,5.71,1.13,3.45,5.61,6.15,11.27,5.77,18.18-.77,14.13-.93,28.29-1.9,42.4-.49,7-8,13.84-15.5,14.69,5.68-5.51,4.45-12.15,4.53-18.51.18-12.82.42-25.65.34-38.47C250.24,83.44,249.13,80.15,248.41,76.24Z"/><path class="cls-1" d="M247.41,317c-2-3.46-4.86-7.22-6.17-11.46-.66-2.17.8-6,2.59-7.7,2.8-2.69,6.57-4.5,10.17-6.16,1.23-.56,3.19.41,4.81.75.26.06.43.49.68.72,9.31,8.67,16,18.22,14.79,32.1-.7,7.87.54,16,1.28,23.91.25,2.6,1.69,5.09,2.86,8.4-1.58,2-4.17,5.18-6.72,8.4-4.94,6.26-7.1,6.29-12.22.11-.3,0-.72-.13-.91,0-6.88,5.69-11.93,5.92-14.15-5.56-1.35-7-2.94-14-3.43-21.13-.56-8.06,8.37-15,17.12-13.39-7.27,9.43-2.81,19.53-2,29.43.08,1,1.74,1.85,2.66,2.78.68-1.18,1.94-2.35,1.95-3.53.09-8.33-.05-16.66-.17-25-.11-7-.22-14-.49-21-.06-1.53-.83-3-1.26-4.54-1.5.53-3.6.62-4.4,1.68C252,309.14,250,312.75,247.41,317Z"/><path class="cls-1" d="M136.16,72.84c-6.08,1.85-9.1,5.72-8.7,12.27l-1.28.15c-2.08-3.63-4.54-7.1-6.1-10.94-1.18-2.91-.17-5.7,2.82-7.74,10.83-7.36,10.59-7.25,19.47,2.29,5.16,5.54,8,11.48,7.82,19.18-.17,8,.41,16,.91,24,.21,3.4-.6,7.53,4.21,8.78-2.28,2.71-4.49,5.15-6.49,7.76-5.24,6.84-6.73,7-12.36.95-9.88,5.76-10.89,5.44-13.59-6a105.59,105.59,0,0,1-3-18.65c-.36-7,8.16-13.27,15.5-11.66-6,8.7-2.73,17.9-1.54,27,.12,1,1.48,1.78,2.27,2.66.6-.86,1.73-1.72,1.72-2.56-.14-15.16-.42-30.31-.71-45.47C137.12,74.2,136.58,73.65,136.16,72.84Z"/><path class="cls-1" d="M263.6,419.65a53.06,53.06,0,0,1-5.58.67c-26.81.35-53.62.57-80.43,1-16.48.25-33.26-1.1-49.34,1.62-18.64,3.15-37-1.42-55.38,1.44-3.37.52-6.58,2.05-9.92,2.8a18.77,18.77,0,0,1-7.48.61c-.72-.14-.85-3.56-1.16-5.5a18.31,18.31,0,0,1-.25-3.47c.15-5,3.93-8.24,8.7-6.76,15.05,4.7,30.3,3.22,45.56,2,5.21-.43,10.46-2.29,15.41,1.23.8.56,2.27.24,3.43.26q65.94.9,131.87,1.82a44.77,44.77,0,0,1,4.59.52Z"/><path class="cls-1" d="M198.5,134l14.88,1.74c-3.67,4.16-6.49,7.64-9.68,10.75-.61.6-2.89.12-4-.53A171.86,171.86,0,0,1,184,136.23c-1.63-1.19-2.8-4.06-2.84-6.19-.32-17-.29-33.94-.43-50.92,0-3-.38-5.9-.59-9l-5.05-.94c6-8.74,11.89-17.45,18.34-26.89v21l8,.37c.22,1.6.44,3.15.72,5.16l-8.36.69c0,4.67-.08,9.42,0,14.17.3,16,.5,32,1.16,47.91.1,2.61,2.13,5.26,3.71,7.6.45.68,2.42.34,3.7.47a23.6,23.6,0,0,0-2.06-3.11,10,10,0,0,0-2.3-1.52Z"/><path class="cls-1" d="M221,158.06c-3,8.34-1.18,17.22-1.92,26.29L212,182.68a110.08,110.08,0,0,0,.54-27.39c-4.67,3.37-5.76,18.17-3.27,30h-8.88c2.45-8.63,2.2-27.54-.51-30.16l7.71-6c.36,1.62.66,2.94,1.05,4.69l6.73-4.14,4.08,6.41,7-4.53c7.92,11.06,2.38,23.2,4.16,34.85l4.43,1.38a6.72,6.72,0,0,0-1.59.54c-1.7,1.21-3.37,2.48-5.05,3.73,1.78,1.42,3.38,3.3,5.4,4.15,2.69,1.13,4.51-.55,5-3.26.78-4.33,2.24-8-1-12.94-3.12-4.76-2.71-11.81-3.9-17.84-.4-2.06-1-4.08-1.53-6.52h7.61c.65,5.91,1.32,12.05,2,18.18,2.62-7.33,5.36-14.54,5.15-22.82l6.57-.84c-1.26,5.7-2.41,11.31-3.73,16.88-2.42,10.18-4.78,20.38-7.49,30.49-1.35,5-4,6.07-8.67,3.82-4-1.9-8.47-3.38-9.49-8.55a18.81,18.81,0,0,1-.19-3.68c-.05-9.33-.05-18.66-.17-28,0-1-.76-2.07-1.16-3.11Z"/><path class="cls-1" d="M181.77,237.31c0,9.87-.18,19.18.17,28.48.06,1.67,2.26,3.27,3.47,4.9,1-1.3,2.34-2.46,2.88-3.92,1.82-5,3.36-10.1,5-15.15,5.7,4.18,6.34,6.7,3.12,12.39-1.14,2-2.32,4-3.44,6.08-3.65,6.61-10,7.28-15.48,2.1-6.41-6.06-10-12.69-8.75-22,1-7.55.78-15.3.69-23-.06-4.93,1.54-8.74,5.41-11.69a24,24,0,0,1,1.86-1.66c3.12-1.83,7-5.74,9.29-5,5.95,2,12.89,4.37,12.93,13.08,0,3.1,1.42,6.17,1.7,9.3.55,6.19-3.32,9.49-9.23,8.18C188.32,238.81,185.27,238.1,181.77,237.31Zm2.92-20.89-2.29.47V232l8.09.91Z"/><path class="cls-1" d="M112.12,251.14c6.27,6.45,6.33,6.85,2.29,14l-2.91,5.23c-3.52,6.3-9.77,6.83-15.19,1.86-7-6.4-10.53-13.55-8.85-23.38,1.08-6.34.78-13,.61-19.45s2.06-11.29,7.17-15.48c7.67-6.31,12.12-6.64,19.39.12a7.27,7.27,0,0,1,1.89,3.38c1.08,4.35,2.14,8.73,2.86,13.15,1,6.23-3.13,10.17-9.11,8.92-1.62-.33-3.22-.82-4.84-1.17s-3.24-.63-5.19-1c0,9.65-.19,19.06.17,28.46.07,1.67,2.39,3.25,3.67,4.87,1-1.47,2.43-2.8,3-4.43C108.93,261.32,110.45,256.26,112.12,251.14Zm-8.56-34.59-2.59,0c-.28,4.66-.63,9.31-.74,14,0,.56,1.26,1.49,2,1.65,2,.39,4.11.43,6.82.67C107.12,227,105.34,221.79,103.56,216.55Z"/><path class="cls-1" d="M204.3,211.43l-7.14-.66,17.53-15.2c.24,4.37.44,7.83.67,12l7.93-4.89c4.21,6,6,12.58,7.05,19.42.13.88-1.23,2.19-2.16,3-2.61,2.22-5.37,4.28-8,6.31-.77-5.92-1.49-11.48-2.21-17l-1.25,0a4.68,4.68,0,0,0-.51,1.53c.57,16,1.05,31.93,1.9,47.87.13,2.5,1.92,4.91,3.15,7.88H203.8c.39-4,1.17-8.44,1.18-12.88,0-14-.23-28-.4-41.92C204.56,215.16,204.41,213.52,204.3,211.43Z"/><path class="cls-1" d="M83.46,270.49,67,269.76c.61-4.14,1.57-7.74,1.6-11.34.16-18,0-36,.1-54,0-3.64.33-7.25-5.78-7.69l17.52-15.84c.14,3,.3,4.71.3,6.43,0,24.32,0,48.64.21,72.95C81,263.47,82.48,266.61,83.46,270.49Z"/><path class="cls-1" d="M302.6,232.74c-4.41,2.75-5.6,21.7-2.84,29.86h-9.32c2.32-6.35,2-27.83-.46-30.42l7.79-5.86c.41,1.51.74,2.69,1.18,4.29l6.48-3.72,4.09,6.3,6.57-4.24c8.34,9.6,6.29,36.39-2.6,40.7V235.23c-4,1.82-5.72,18.46-3.25,26.72l-7.64-2.08Z"/><path class="cls-1" d="M207.63,82.44l-5.19-.56-.3-1.11,18.65-8.46c0,6.77,0,12.48,0,18.19,0,9.64-.24,19.29,0,28.92.09,3.28,1.42,6.52,2.2,9.86H205.11c.89-4.74,2.27-9.1,2.41-13.5C207.86,104.88,207.63,94,207.63,82.44Z"/><path class="cls-1" d="M173.33,129.43h-19.7c6.41-7.31,3.86-15.72,4.54-23.52s.14-15.49.14-23.44L153.09,82c-.17-.43-.33-.85-.5-1.27l18.31-8.35c0,16.34-.13,31.59.11,46.83C171.06,122.49,172.46,125.75,173.33,129.43Z"/><path class="cls-1" d="M162.59,168.53c0,2.65,0,5.31,0,8,0,5-4.58,10.67-9.05,9.3-3.42-1.06-6.95-5-8.36-8.51-1.59-3.94-.69-8.83-1.18-13.28-.62-5.62,1.85-9,6.83-11.28,5.72-2.67,11,.39,11.21,6.84.07,3,0,6,0,9Zm-7.34-13.86c-6,4-5.89,24.27,0,28.55Z"/><path class="cls-1" d="M288.54,245.76c0,3,.48,6.09-.16,8.94-.51,2.3-1.89,5-3.74,6.28-5.73,4-12.91.53-13.78-6.58a143.15,143.15,0,0,1-.88-15.92c-.05-4.49,6.61-10.34,11.09-10.09,3.66.2,7,4.89,7,9.88,0,2.5,0,5,0,7.49Zm-7.3-13.86c-6.1,3.63-6,24.66,0,28.21Z"/><path class="cls-1" d="M140.92,186.18l-8.33-.86c.25-5.55.87-10.8.62-16-.23-4.93,2.54-10.39-1.43-14.22.79-2.27,1.92-4.13,2-6.06.44-7,5.17-10.4,10.51-13.43,7.27,6.77,7.23,9.26-.08,13.09q-.63-3.45-1.26-6.95h-1.77c-.34,3.38-.68,6.76-1,10.37l6.26,1.82c-8.1,1.94-6.32,7.35-6.41,12s-.21,9.31-.11,14A47.67,47.67,0,0,0,140.92,186.18Z"/><path class="cls-1" d="M250.62,212.72c7.22,7.42,7.16,9-.19,13.13q-.68-3.51-1.35-7.07l-2,.11c-.16,3.49-.33,7-.51,10.74l5.82,1.21c-8.75,3-6.08,9.43-6.3,14.71-.24,5.81-.05,11.63-.05,17.66l-7.19-.6c-.13-10.46,2.22-20.75-.08-30.83l-1.27.07c.81-1.36,2.3-2.72,2.31-4.09C239.88,220.19,244.32,216,250.62,212.72Z"/><path class="cls-1" d="M162.47,150.74l8-7c.37,2.16.64,3.68,1,5.55l4.28-1.78c5.43,9.12,5.22,11.05-1.42,14.4-.55-2.48-1.1-5-1.66-7.45l-1,.14c.55,9.94,1.1,19.89,1.66,30.17h-8.19C167.47,175.28,165.91,152.94,162.47,150.74Z"/><path class="cls-1" d="M260.64,231.58c.52,10,1.05,20.08,1.59,30.37h-7.51c0-5.68.28-11.51-.07-17.3-.35-5.63,1.79-11.72-2.36-17.53l7.41-6.42c.4,2.05.69,3.56,1.08,5.51l3.76-1.59c5.24,7,5,10.92-1.16,14.48-.53-2.6-1.06-5.16-1.58-7.72Z"/><path class="cls-1" d="M302.56,429,297,432.13l2.72-6.8-6.28-2.9,5.75-2.07c-1-2.19-2-4.21-3.58-7.49l6.23,4.71c.57-2.67,1-4.84,1.64-7.59.82,2.82,1.49,5.16,2.3,7.93l5.9-3.1c-1.11,2.64-1.91,4.56-2.84,6.79l6.82,3.16-6.4,1.66,3.58,7.35-6.08-4.26-1.38,7.1C304.27,433.63,303.47,431.48,302.56,429Z"/><path class="cls-1" d="M214.36,71.52c-4.15.1-6.05-2.25-6.34-6.07a8,8,0,0,1,7.58-8.21,6.5,6.5,0,0,1,6.71,6.46A7.81,7.81,0,0,1,214.36,71.52Z"/><path class="cls-1" d="M165.91,57.2a7,7,0,0,1,6.92,7c-.17,3.85-4.45,7.54-8.64,7.38s-5.8-2.68-5.73-6.57C158.53,60.79,162,57.2,165.91,57.2Z"/><path class="cls-1" d="M320.15,392.78c1.18,1.81,1.14,5.94,4.69,1-.21,2.26-.32,3.46-.46,4.89l4.19.91-3.93,2.51L326,406.3l-3.68-.58-.83,4.45-2.11-3.64-3.62,2.66,1.33-4.66-3.89-1.38,3.75-2.59-2-4.36,4.07,1Z"/><path class="cls-1" d="M281.48,425.66l-6.29-.74c-.14-1.72-.29-3.52-.39-4.77l2.39-3.32,4.76-1.78,2.85,2.81-1.28,1.77,2.12,1.66Z"/><path class="cls-1" d="M290.1,401.71l-4.68,5.66c-1.23-1.5-3.77-3.5-3.42-4.42.7-1.87,2.81-3.4,4.68-4.48C287.07,398.24,288.94,400.58,290.1,401.71Z"/><path class="cls-1" d="M360.78,412.73c-1.93,1.58-3.68,3.31-3.89,3.14-1.61-1.3-3.37-2.8-4.1-4.62-.3-.73,1.88-2.45,2.93-3.72Z"/><path class="cls-1" d="M361.33,397.78c1.76-1.59,3.63-3.66,3.9-3.47a12.84,12.84,0,0,1,4.18,4.5c.22.45-2.57,3.41-3.49,3.19C364.37,401.62,363.21,399.63,361.33,397.78Z"/><path class="cls-1" d="M344.44,395.66c1.93,2.17,3.84,4.65,1.11,7.12-1,.93-5,.51-5,.33C340,399.78,340.8,396.86,344.44,395.66Z"/><path class="cls-1" d="M333.23,425.49c-1.56-2.62-2.89-4.33-3.54-6.27-.19-.55,1.6-1.76,2.48-2.67a35.31,35.31,0,0,1,4,5C336.41,422,334.82,423.43,333.23,425.49Z"/></g></g></svg>