<svg xmlns="http://www.w3.org/2000/svg" viewBox="0 0 358 358"><defs><style>.cls-1{fill:#063642;opacity:0.17;}.cls-2{fill:#fff;}</style></defs><title>Asset 3</title><g id="Layer_2" data-name="Layer 2"><g id="Layer_1-2" data-name="Layer 1"><circle class="cls-1" cx="179" cy="179" r="179"/><path class="cls-2" d="M178.92,155.05a31.94,31.94,0,0,0-22.71,9.34,32.67,32.67,0,0,0-9.34,22.71,31.92,31.92,0,0,0,9.34,22.7,32.24,32.24,0,0,0,45.41,0A31.28,31.28,0,0,0,211,187.1a32,32,0,0,0-9.35-22.71A32.64,32.64,0,0,0,178.92,155.05Z"/><path class="cls-2" d="M254.87,137.68a10.72,10.72,0,0,0-7.68-3.17H215a4.48,4.48,0,0,1-4.5-4.5v-4.85a6.3,6.3,0,0,0-6.51-6.51H154a6.3,6.3,0,0,0-6.51,6.51V130a4.48,4.48,0,0,1-4.5,4.5H110.81A10.82,10.82,0,0,0,100,145.36V228.5a10.84,10.84,0,0,0,10.85,10.85H247a10.86,10.86,0,0,0,10.85-10.85H258V145.36A10.75,10.75,0,0,0,254.87,137.68ZM208,216a41.11,41.11,0,1,1,12-29A41.13,41.13,0,0,1,208,216Zm30.38-53.92a8.18,8.18,0,1,1,8.18-8.18A8.19,8.19,0,0,1,238.34,162.06Z"/></g></g></svg>